<?xml version="1.0" encoding="UTF-8"?><svg id="Layer_2" xmlns="http://www.w3.org/2000/svg" width="71.96" height="71.96" viewBox="0 0 71.96 71.96"><defs><style>.cls-1,.cls-2{fill:#f4f5f7;}.cls-2{stroke:#000;stroke-miterlimit:10;}.cls-3{opacity:.3;}</style></defs><g id="Layer_1-2"><circle cx="35.98" cy="35.98" r="35.98"/><g class="cls-3"><path class="cls-1" d="M22.53,30.8c-6.84,.26-6.63-11.56,.18-11.14,6.73-.23,6.51,11.53-.18,11.14Zm-2.67-8.78c-4.77,6.08,6.04,11.9,6.49,3.24"/><path class="cls-1" d="M36.02,30.62h-1.23v-4.39c0-1.63-.6-2.45-1.79-2.45-.62,0-1.13,.23-1.53,.7s-.61,1.05-.61,1.76v4.39l-3.34,.41,2.1-8.11h1.23v1.28h.03c.58-.97,1.42-1.46,2.53-1.46,.84,0,1.49,.27,1.93,.82s.67,1.33,.67,2.36v4.71Z"/><path class="cls-1" d="M43.59,30.27c-.59,.36-1.29,.53-2.11,.53-1.1,0-1.98-.36-2.66-1.07s-1.04-1.41-1.04-2.55c0-1.27,.39-2.52,1.11-3.28s1.7-1.15,2.91-1.15c.68,0,1.27,.13,1.79,.38v1.26c-.57-.4-1.18-.6-1.83-.6-.79,0-1.43,.28-1.94,.85s.52,4.2,.52,5.12-1.04-1.29-.57-.76,1.11,.78,1.91,.78c.67,0,1.3-.22,1.89-.67v1.17Z"/><g><path class="cls-1" d="M28.96,32.97c-.08,0-.15-.03-.21-.08s-.09-.13-.09-.22,.03-.16,.09-.22c.06-.06,.13-.09,.21-.09s.16,.03,.22,.09c.06,.06,.09,.13,.09,.22s-.03,.15-.09,.21-.13,.09-.22,.09Zm.23,3.63h-.46v-2.9h.46v2.9Z"/><path class="cls-1" d="M32.53,36.61h-.46v-1.65c0-.61-.22-.92-.67-.92-.23,0-.42,.09-.58,.26s-.23,.39-.23,.66v1.65h-.46v-2.9h.46v.48h.01c.22-.37,.54-.55,.95-.55,.32,0,.56,.1,.73,.31s.25,.5,.25,.89v1.77Z"/><path class="cls-1" d="M36.34,36.58c-.11,.06-.25,.09-.43,.09-.51,0-.76-.28-.76-.85v-1.71h-.5v-.4h.5v-.71l.46-.15v.86h.73v.4h-.73v1.63c0,.19,.03,.33,.1,.42s.18,.12,.33,.12c.12,0,.22-.03,.3-.1v.4Z"/><path class="cls-1" d="M39.36,36.61h-.46v-1.67c0-.6-.22-.91-.67-.91-.23,0-.42,.09-.57,.26s-.23,.4-.23,.67v1.64h-.46v-4.29h.46v1.87h.01c.22-.37,.54-.55,.95-.55,.65,0,.98,.39,.98,1.18v1.79Z"/><path class="cls-1" d="M42.57,35.27h-2.05c0,.32,.09,.57,.26,.75s.39,.26,.68,.26c.33,0,.63-.11,.9-.32v.44c-.25,.18-.59,.28-1.01,.28s-.73-.13-.96-.39c-.23-.26-.35-.63-.35-1.11,0-.45,.13-.82,.38-1.1s.57-.43,.95-.43,.67,.12,.88,.37,.31,.59,.31,1.02v.24Zm-.48-.39c0-.27-.07-.48-.19-.63s-.3-.22-.53-.22-.4,.08-.56,.23-.25,.36-.28,.61h1.56Z"/></g><path class="cls-1" d="M33.86,38.67l-3.05,10.78h-1.48l-2.22-7.88c-.1-.34-.15-.7-.17-1.1h-.03c-.03,.37-.1,.73-.2,1.08l-2.23,7.9h-1.47l-3.16-10.78,3.82,1.35-.13,6.92c.1,.35,.16,.71,.18,1.08h.04c.03-.27,.1-.63,.23-1.08l2.38-8.27h1.21l2.29,8.33c.08,.29,.14,.62,.18,1.01h.03c.02-.26,.09-.61-.81-1.41l2.2-8.3,2.39,.37Z"/><path class="cls-1" d="M41.49,45.91h-5.44c.02,.86,.25,1.52,.69,1.99s1.05,.7,1.82,.7c.87,0,1.07-1.59,2.56-1.31l.52,1.72c-1.44-.36-2.26,.63-3.38,.63s-1.94-.35-2.56-1.05-.93-1.68-.93-2.95c0-1.2,.34-2.17,1.02-2.93s1.52-1.13,2.53-1.13,1.79,.33,2.34,.98,.83,1.56,.83,2.71v.65Zm-1.26-1.05c0-.71-.18-1.27-.52-1.66s-.81-.59-1.41-.59-1.08,.21-1.48,.62-.66,.96-.75,1.63h4.16Z"/><path class="cls-1" d="M44.61,48.34h-.03v1.11h-1.23v-11.4l2.14-.6-.91,5.65h.03c.61-1.02,1.49-1.53,2.66-1.53,.99,0,1.76,.34,2.32,1.03s.84,1.61,.84,2.77c0,1.29-.31,2.32-.94,3.09s-1.48,1.16-2.57,1.16c-1.02,0-1.79-.43-2.31-1.29Zm-.03-3.11v1.08c0,.64,.21,1.18,.62,1.62s.94,.67,1.58,.67c.75,0,1.33-.29,1.76-.86s.64-1.37,.64-2.38c0-.86-.2-1.53-.59-2.02s-.93-.73-1.61-.73c-.72,0-1.29,.25-1.73,.75s-.65,1.12-.65,1.88Z"/><path class="cls-1" d="M51.51,26.85h-5.44c.02,.86,.25,1.52,.69,1.99s1.05,.7,1.82,.7c.87,0,1.07-1.59,2.56-1.31l.52,1.72c-1.44-.36-2.26,.63-3.38,.63s-1.94-.35-2.56-1.05-.93-1.68-.93-2.95c0-1.2,.34-2.17,1.02-2.93s1.52-1.13,2.53-1.13,1.79,.33,2.34,.98,.83,1.56,.83,2.71v.65Zm-1.26-1.05c0-.71-.18-1.27-.52-1.66s-.81-.59-1.41-.59-1.08,.21-1.48,.62-.66,.96-.75,1.63h4.16Z"/><line class="cls-2" x1="54.47" y1="21.51" x2="54.47" y2="52.31"/></g></g></svg>